%TF.GenerationSoftware,KiCad,Pcbnew,(6.0.8)*%
%TF.CreationDate,2022-11-25T19:56:48+01:00*%
%TF.ProjectId,esp32-cy7c65213-programmer,65737033-322d-4637-9937-633635323133,rev?*%
%TF.SameCoordinates,Original*%
%TF.FileFunction,Paste,Top*%
%TF.FilePolarity,Positive*%
%FSLAX46Y46*%
G04 Gerber Fmt 4.6, Leading zero omitted, Abs format (unit mm)*
G04 Created by KiCad (PCBNEW (6.0.8)) date 2022-11-25 19:56:48*
%MOMM*%
%LPD*%
G01*
G04 APERTURE LIST*
G04 Aperture macros list*
%AMRoundRect*
0 Rectangle with rounded corners*
0 $1 Rounding radius*
0 $2 $3 $4 $5 $6 $7 $8 $9 X,Y pos of 4 corners*
0 Add a 4 corners polygon primitive as box body*
4,1,4,$2,$3,$4,$5,$6,$7,$8,$9,$2,$3,0*
0 Add four circle primitives for the rounded corners*
1,1,$1+$1,$2,$3*
1,1,$1+$1,$4,$5*
1,1,$1+$1,$6,$7*
1,1,$1+$1,$8,$9*
0 Add four rect primitives between the rounded corners*
20,1,$1+$1,$2,$3,$4,$5,0*
20,1,$1+$1,$4,$5,$6,$7,0*
20,1,$1+$1,$6,$7,$8,$9,0*
20,1,$1+$1,$8,$9,$2,$3,0*%
G04 Aperture macros list end*
%ADD10RoundRect,0.250000X0.412500X0.650000X-0.412500X0.650000X-0.412500X-0.650000X0.412500X-0.650000X0*%
%ADD11R,0.800000X1.900000*%
%ADD12R,2.750000X3.050000*%
%ADD13R,1.200000X2.200000*%
%ADD14RoundRect,0.250000X1.412500X0.550000X-1.412500X0.550000X-1.412500X-0.550000X1.412500X-0.550000X0*%
%ADD15RoundRect,0.250000X-0.537500X-0.425000X0.537500X-0.425000X0.537500X0.425000X-0.537500X0.425000X0*%
%ADD16RoundRect,0.250000X-0.400000X-0.625000X0.400000X-0.625000X0.400000X0.625000X-0.400000X0.625000X0*%
%ADD17RoundRect,0.250000X-0.412500X-0.650000X0.412500X-0.650000X0.412500X0.650000X-0.412500X0.650000X0*%
%ADD18RoundRect,0.250000X0.400000X0.625000X-0.400000X0.625000X-0.400000X-0.625000X0.400000X-0.625000X0*%
%ADD19R,1.450000X0.600000*%
%ADD20R,1.450000X0.300000*%
%ADD21RoundRect,0.250001X0.462499X0.624999X-0.462499X0.624999X-0.462499X-0.624999X0.462499X-0.624999X0*%
%ADD22RoundRect,0.250000X0.625000X-0.400000X0.625000X0.400000X-0.625000X0.400000X-0.625000X-0.400000X0*%
%ADD23RoundRect,0.250000X0.425000X-0.537500X0.425000X0.537500X-0.425000X0.537500X-0.425000X-0.537500X0*%
%ADD24RoundRect,0.250001X-0.462499X-0.624999X0.462499X-0.624999X0.462499X0.624999X-0.462499X0.624999X0*%
%ADD25R,1.750000X0.450000*%
%ADD26RoundRect,0.250000X-0.625000X0.400000X-0.625000X-0.400000X0.625000X-0.400000X0.625000X0.400000X0*%
G04 APERTURE END LIST*
D10*
%TO.C,C4*%
X115862500Y-118110000D03*
X112737500Y-118110000D03*
%TD*%
D11*
%TO.C,Q2*%
X145095000Y-110260000D03*
X143195000Y-110260000D03*
X144145000Y-113260000D03*
%TD*%
D12*
%TO.C,U1*%
X110110000Y-104985000D03*
X107060000Y-104985000D03*
X110110000Y-101635000D03*
X107060000Y-101635000D03*
D13*
X106305000Y-109610000D03*
X108585000Y-109610000D03*
X110865000Y-109610000D03*
%TD*%
D14*
%TO.C,C5*%
X109852500Y-115570000D03*
X104777500Y-115570000D03*
%TD*%
D15*
%TO.C,C3*%
X114132500Y-99060000D03*
X117007500Y-99060000D03*
%TD*%
D16*
%TO.C,R4*%
X127355000Y-106680000D03*
X130455000Y-106680000D03*
%TD*%
D17*
%TO.C,C2*%
X114007500Y-101600000D03*
X117132500Y-101600000D03*
%TD*%
D16*
%TO.C,R5*%
X127355000Y-109855000D03*
X130455000Y-109855000D03*
%TD*%
D18*
%TO.C,R8*%
X122835000Y-99060000D03*
X119735000Y-99060000D03*
%TD*%
D16*
%TO.C,R1*%
X95605000Y-101600000D03*
X98705000Y-101600000D03*
%TD*%
%TO.C,R6*%
X136600000Y-113665000D03*
X139700000Y-113665000D03*
%TD*%
D11*
%TO.C,Q1*%
X143195000Y-106910000D03*
X145095000Y-106910000D03*
X144145000Y-103910000D03*
%TD*%
D18*
%TO.C,R7*%
X133985000Y-113665000D03*
X130885000Y-113665000D03*
%TD*%
D16*
%TO.C,R3*%
X95605000Y-115570000D03*
X98705000Y-115570000D03*
%TD*%
D19*
%TO.C,J1*%
X98025000Y-105335000D03*
X98025000Y-106135000D03*
D20*
X98025000Y-107335000D03*
X98025000Y-108335000D03*
X98025000Y-108835000D03*
X98025000Y-109835000D03*
D19*
X98025000Y-111035000D03*
X98025000Y-111835000D03*
X98025000Y-111835000D03*
X98025000Y-111035000D03*
D20*
X98025000Y-110335000D03*
X98025000Y-109335000D03*
X98025000Y-107835000D03*
X98025000Y-106835000D03*
D19*
X98025000Y-106135000D03*
X98025000Y-105335000D03*
%TD*%
D21*
%TO.C,D1*%
X139637500Y-118110000D03*
X136662500Y-118110000D03*
%TD*%
D16*
%TO.C,R2*%
X95605000Y-118110000D03*
X98705000Y-118110000D03*
%TD*%
D17*
%TO.C,C1*%
X95592500Y-99060000D03*
X98717500Y-99060000D03*
%TD*%
D22*
%TO.C,R9*%
X147320000Y-110135000D03*
X147320000Y-107035000D03*
%TD*%
D23*
%TO.C,C6*%
X127635000Y-115737500D03*
X127635000Y-112862500D03*
%TD*%
D24*
%TO.C,D2*%
X130947500Y-118110000D03*
X133922500Y-118110000D03*
%TD*%
D25*
%TO.C,U2*%
X115780000Y-105630000D03*
X115780000Y-106280000D03*
X115780000Y-106930000D03*
X115780000Y-107580000D03*
X115780000Y-108230000D03*
X115780000Y-108880000D03*
X115780000Y-109530000D03*
X115780000Y-110180000D03*
X115780000Y-110830000D03*
X115780000Y-111480000D03*
X115780000Y-112130000D03*
X115780000Y-112780000D03*
X115780000Y-113430000D03*
X115780000Y-114080000D03*
X122980000Y-114080000D03*
X122980000Y-113430000D03*
X122980000Y-112780000D03*
X122980000Y-112130000D03*
X122980000Y-111480000D03*
X122980000Y-110830000D03*
X122980000Y-110180000D03*
X122980000Y-109530000D03*
X122980000Y-108880000D03*
X122980000Y-108230000D03*
X122980000Y-107580000D03*
X122980000Y-106930000D03*
X122980000Y-106280000D03*
X122980000Y-105630000D03*
%TD*%
D24*
%TO.C,D3*%
X125512500Y-99060000D03*
X128487500Y-99060000D03*
%TD*%
D26*
%TO.C,R10*%
X139700000Y-105765000D03*
X139700000Y-108865000D03*
%TD*%
M02*
