M48
; DRILL file {KiCad (6.0.8)} date Fri 25 Nov 2022 19:56:45 CET
; FORMAT={-:-/ absolute / metric / decimal}
; #@! TF.CreationDate,2022-11-25T19:56:45+01:00
; #@! TF.GenerationSoftware,Kicad,Pcbnew,(6.0.8)
; #@! TF.FileFunction,MixedPlating,1,2
FMAT,2
METRIC
; #@! TA.AperFunction,Plated,PTH,ViaDrill
T1C0.400
; #@! TA.AperFunction,Plated,PTH,ComponentDrill
T2C0.600
; #@! TA.AperFunction,Plated,PTH,ComponentDrill
T3C1.000
; #@! TA.AperFunction,NonPlated,NPTH,ComponentDrill
T4C0.650
%
G90
G05
T1
X100.33Y-104.14
X100.33Y-109.855
X100.33Y-112.395
X101.6Y-107.95
X102.87Y-106.68
X108.585Y-99.06
X112.395Y-105.41
X113.665Y-103.505
X114.3Y-118.11
X117.475Y-116.84
X117.785Y-109.53
X118.11Y-106.045
X118.11Y-107.315
X118.745Y-102.235
X118.745Y-113.03
X118.745Y-114.3
X120.015Y-108.585
X120.65Y-109.855
X121.285Y-106.045
X121.285Y-107.315
X127.0Y-99.06
X133.985Y-115.57
X135.255Y-104.775
X136.525Y-104.775
X136.525Y-115.57
X147.828Y-104.14
X149.352Y-109.855
X150.495Y-107.325
T3
X156.661Y-101.087
X156.661Y-103.627
X156.661Y-106.167
X156.661Y-108.707
X156.661Y-111.247
X156.661Y-113.787
X156.661Y-116.327
T4
X96.58Y-105.695
X96.58Y-111.475
T2
G00X93.23Y-104.265
M15
G01X92.63Y-104.265
M16
G05
G00X93.23Y-112.905
M15
G01X92.63Y-112.905
M16
G05
G00X97.66Y-104.265
M15
G01X96.56Y-104.265
M16
G05
G00X97.66Y-112.905
M15
G01X96.56Y-112.905
M16
G05
T0
M30
