%TF.GenerationSoftware,KiCad,Pcbnew,(6.0.10-dirty)*%
%TF.CreationDate,2022-12-24T01:30:53+01:00*%
%TF.ProjectId,esp32-cy7c65213-programmer,65737033-322d-4637-9937-633635323133,rev?*%
%TF.SameCoordinates,Original*%
%TF.FileFunction,Soldermask,Top*%
%TF.FilePolarity,Negative*%
%FSLAX46Y46*%
G04 Gerber Fmt 4.6, Leading zero omitted, Abs format (unit mm)*
G04 Created by KiCad (PCBNEW (6.0.10-dirty)) date 2022-12-24 01:30:53*
%MOMM*%
%LPD*%
G01*
G04 APERTURE LIST*
G04 Aperture macros list*
%AMRoundRect*
0 Rectangle with rounded corners*
0 $1 Rounding radius*
0 $2 $3 $4 $5 $6 $7 $8 $9 X,Y pos of 4 corners*
0 Add a 4 corners polygon primitive as box body*
4,1,4,$2,$3,$4,$5,$6,$7,$8,$9,$2,$3,0*
0 Add four circle primitives for the rounded corners*
1,1,$1+$1,$2,$3*
1,1,$1+$1,$4,$5*
1,1,$1+$1,$6,$7*
1,1,$1+$1,$8,$9*
0 Add four rect primitives between the rounded corners*
20,1,$1+$1,$2,$3,$4,$5,0*
20,1,$1+$1,$4,$5,$6,$7,0*
20,1,$1+$1,$6,$7,$8,$9,0*
20,1,$1+$1,$8,$9,$2,$3,0*%
G04 Aperture macros list end*
%ADD10R,0.800000X1.900000*%
%ADD11RoundRect,0.250000X0.412500X0.650000X-0.412500X0.650000X-0.412500X-0.650000X0.412500X-0.650000X0*%
%ADD12R,1.700000X1.700000*%
%ADD13O,1.700000X1.700000*%
%ADD14R,1.200000X2.200000*%
%ADD15R,5.800000X6.400000*%
%ADD16RoundRect,0.250000X1.412500X0.550000X-1.412500X0.550000X-1.412500X-0.550000X1.412500X-0.550000X0*%
%ADD17RoundRect,0.250000X-0.537500X-0.425000X0.537500X-0.425000X0.537500X0.425000X-0.537500X0.425000X0*%
%ADD18RoundRect,0.250000X-0.400000X-0.625000X0.400000X-0.625000X0.400000X0.625000X-0.400000X0.625000X0*%
%ADD19RoundRect,0.250000X-0.412500X-0.650000X0.412500X-0.650000X0.412500X0.650000X-0.412500X0.650000X0*%
%ADD20RoundRect,0.250000X0.400000X0.625000X-0.400000X0.625000X-0.400000X-0.625000X0.400000X-0.625000X0*%
%ADD21C,0.650000*%
%ADD22R,1.450000X0.600000*%
%ADD23R,1.450000X0.300000*%
%ADD24O,2.100000X1.000000*%
%ADD25O,1.600000X1.000000*%
%ADD26RoundRect,0.250001X0.462499X0.624999X-0.462499X0.624999X-0.462499X-0.624999X0.462499X-0.624999X0*%
%ADD27RoundRect,0.250000X0.625000X-0.400000X0.625000X0.400000X-0.625000X0.400000X-0.625000X-0.400000X0*%
%ADD28RoundRect,0.250000X0.425000X-0.537500X0.425000X0.537500X-0.425000X0.537500X-0.425000X-0.537500X0*%
%ADD29RoundRect,0.250001X-0.462499X-0.624999X0.462499X-0.624999X0.462499X0.624999X-0.462499X0.624999X0*%
%ADD30R,1.750000X0.450000*%
%ADD31RoundRect,0.250000X-0.625000X0.400000X-0.625000X-0.400000X0.625000X-0.400000X0.625000X0.400000X0*%
G04 APERTURE END LIST*
D10*
%TO.C,Q2*%
X144460000Y-110260000D03*
X142560000Y-110260000D03*
X143510000Y-113260000D03*
%TD*%
%TO.C,Q1*%
X142560000Y-106910000D03*
X144460000Y-106910000D03*
X143510000Y-103910000D03*
%TD*%
D11*
%TO.C,C4*%
X115862500Y-118110000D03*
X112737500Y-118110000D03*
%TD*%
D12*
%TO.C,J2*%
X156661000Y-101087000D03*
D13*
X156661000Y-103627000D03*
X156661000Y-106167000D03*
X156661000Y-108707000D03*
X156661000Y-111247000D03*
X156661000Y-113787000D03*
X156661000Y-116327000D03*
%TD*%
D14*
%TO.C,U1*%
X106305000Y-109610000D03*
X108585000Y-109610000D03*
D15*
X108585000Y-103310000D03*
D14*
X110865000Y-109610000D03*
%TD*%
D16*
%TO.C,C5*%
X109852500Y-115570000D03*
X104777500Y-115570000D03*
%TD*%
D17*
%TO.C,C3*%
X114132500Y-99060000D03*
X117007500Y-99060000D03*
%TD*%
D18*
%TO.C,R4*%
X127355000Y-106680000D03*
X130455000Y-106680000D03*
%TD*%
D19*
%TO.C,C2*%
X114007500Y-101600000D03*
X117132500Y-101600000D03*
%TD*%
D18*
%TO.C,R5*%
X127355000Y-109855000D03*
X130455000Y-109855000D03*
%TD*%
D20*
%TO.C,R8*%
X122835000Y-99060000D03*
X119735000Y-99060000D03*
%TD*%
D18*
%TO.C,R1*%
X95605000Y-101600000D03*
X98705000Y-101600000D03*
%TD*%
%TO.C,R6*%
X136600000Y-113665000D03*
X139700000Y-113665000D03*
%TD*%
D20*
%TO.C,R7*%
X133985000Y-113665000D03*
X130885000Y-113665000D03*
%TD*%
D18*
%TO.C,R3*%
X95605000Y-115570000D03*
X98705000Y-115570000D03*
%TD*%
D21*
%TO.C,J1*%
X96580000Y-111475000D03*
X96580000Y-105695000D03*
D22*
X98025000Y-105335000D03*
X98025000Y-106135000D03*
D23*
X98025000Y-107335000D03*
X98025000Y-108335000D03*
X98025000Y-108835000D03*
X98025000Y-109835000D03*
D22*
X98025000Y-111035000D03*
X98025000Y-111835000D03*
X98025000Y-111835000D03*
X98025000Y-111035000D03*
D23*
X98025000Y-110335000D03*
X98025000Y-109335000D03*
X98025000Y-107835000D03*
X98025000Y-106835000D03*
D22*
X98025000Y-106135000D03*
X98025000Y-105335000D03*
D24*
X97110000Y-112905000D03*
D25*
X92930000Y-112905000D03*
X92930000Y-104265000D03*
D24*
X97110000Y-104265000D03*
%TD*%
D26*
%TO.C,D1*%
X139637500Y-118110000D03*
X136662500Y-118110000D03*
%TD*%
D18*
%TO.C,R2*%
X95605000Y-118110000D03*
X98705000Y-118110000D03*
%TD*%
D19*
%TO.C,C1*%
X95592500Y-99060000D03*
X98717500Y-99060000D03*
%TD*%
D27*
%TO.C,R9*%
X139700000Y-110135000D03*
X139700000Y-107035000D03*
%TD*%
D28*
%TO.C,C6*%
X127635000Y-115737500D03*
X127635000Y-112862500D03*
%TD*%
D29*
%TO.C,D2*%
X130947500Y-118110000D03*
X133922500Y-118110000D03*
%TD*%
D30*
%TO.C,U2*%
X115780000Y-105630000D03*
X115780000Y-106280000D03*
X115780000Y-106930000D03*
X115780000Y-107580000D03*
X115780000Y-108230000D03*
X115780000Y-108880000D03*
X115780000Y-109530000D03*
X115780000Y-110180000D03*
X115780000Y-110830000D03*
X115780000Y-111480000D03*
X115780000Y-112130000D03*
X115780000Y-112780000D03*
X115780000Y-113430000D03*
X115780000Y-114080000D03*
X122980000Y-114080000D03*
X122980000Y-113430000D03*
X122980000Y-112780000D03*
X122980000Y-112130000D03*
X122980000Y-111480000D03*
X122980000Y-110830000D03*
X122980000Y-110180000D03*
X122980000Y-109530000D03*
X122980000Y-108880000D03*
X122980000Y-108230000D03*
X122980000Y-107580000D03*
X122980000Y-106930000D03*
X122980000Y-106280000D03*
X122980000Y-105630000D03*
%TD*%
D29*
%TO.C,D3*%
X125512500Y-99060000D03*
X128487500Y-99060000D03*
%TD*%
D31*
%TO.C,R10*%
X147320000Y-107035000D03*
X147320000Y-110135000D03*
%TD*%
M02*
