%TF.GenerationSoftware,KiCad,Pcbnew,(6.0.8)*%
%TF.CreationDate,2022-11-25T19:56:48+01:00*%
%TF.ProjectId,esp32-cy7c65213-programmer,65737033-322d-4637-9937-633635323133,rev?*%
%TF.SameCoordinates,Original*%
%TF.FileFunction,Legend,Top*%
%TF.FilePolarity,Positive*%
%FSLAX46Y46*%
G04 Gerber Fmt 4.6, Leading zero omitted, Abs format (unit mm)*
G04 Created by KiCad (PCBNEW (6.0.8)) date 2022-11-25 19:56:48*
%MOMM*%
%LPD*%
G01*
G04 APERTURE LIST*
%ADD10C,0.300000*%
%ADD11C,0.150000*%
%ADD12C,0.120000*%
G04 APERTURE END LIST*
D10*
X130080000Y-99738571D02*
X130080000Y-98238571D01*
X130651428Y-98238571D01*
X130794285Y-98310000D01*
X130865714Y-98381428D01*
X130937142Y-98524285D01*
X130937142Y-98738571D01*
X130865714Y-98881428D01*
X130794285Y-98952857D01*
X130651428Y-99024285D01*
X130080000Y-99024285D01*
X131437142Y-98238571D02*
X131794285Y-99738571D01*
X132080000Y-98667142D01*
X132365714Y-99738571D01*
X132722857Y-98238571D01*
X134151428Y-99738571D02*
X133651428Y-99024285D01*
X133294285Y-99738571D02*
X133294285Y-98238571D01*
X133865714Y-98238571D01*
X134008571Y-98310000D01*
X134080000Y-98381428D01*
X134151428Y-98524285D01*
X134151428Y-98738571D01*
X134080000Y-98881428D01*
X134008571Y-98952857D01*
X133865714Y-99024285D01*
X133294285Y-99024285D01*
X152173571Y-111144857D02*
X152673571Y-111144857D01*
X152887857Y-111930571D02*
X152173571Y-111930571D01*
X152173571Y-110430571D01*
X152887857Y-110430571D01*
X153530714Y-111930571D02*
X153530714Y-110430571D01*
X154387857Y-111930571D01*
X154387857Y-110430571D01*
X150816428Y-105350571D02*
X151673571Y-105350571D01*
X151245000Y-106850571D02*
X151245000Y-105350571D01*
X152030714Y-105350571D02*
X153030714Y-106850571D01*
X153030714Y-105350571D02*
X152030714Y-106850571D01*
X153602142Y-106850571D02*
X153602142Y-105350571D01*
X153959285Y-105350571D01*
X154173571Y-105422000D01*
X154316428Y-105564857D01*
X154387857Y-105707714D01*
X154459285Y-105993428D01*
X154459285Y-106207714D01*
X154387857Y-106493428D01*
X154316428Y-106636285D01*
X154173571Y-106779142D01*
X153959285Y-106850571D01*
X153602142Y-106850571D01*
X141863285Y-98761357D02*
X142363285Y-98761357D01*
X142577571Y-99547071D02*
X141863285Y-99547071D01*
X141863285Y-98047071D01*
X142577571Y-98047071D01*
X143149000Y-99475642D02*
X143363285Y-99547071D01*
X143720428Y-99547071D01*
X143863285Y-99475642D01*
X143934714Y-99404214D01*
X144006142Y-99261357D01*
X144006142Y-99118500D01*
X143934714Y-98975642D01*
X143863285Y-98904214D01*
X143720428Y-98832785D01*
X143434714Y-98761357D01*
X143291857Y-98689928D01*
X143220428Y-98618500D01*
X143149000Y-98475642D01*
X143149000Y-98332785D01*
X143220428Y-98189928D01*
X143291857Y-98118500D01*
X143434714Y-98047071D01*
X143791857Y-98047071D01*
X144006142Y-98118500D01*
X144649000Y-99547071D02*
X144649000Y-98047071D01*
X145220428Y-98047071D01*
X145363285Y-98118500D01*
X145434714Y-98189928D01*
X145506142Y-98332785D01*
X145506142Y-98547071D01*
X145434714Y-98689928D01*
X145363285Y-98761357D01*
X145220428Y-98832785D01*
X144649000Y-98832785D01*
X146006142Y-98047071D02*
X146934714Y-98047071D01*
X146434714Y-98618500D01*
X146649000Y-98618500D01*
X146791857Y-98689928D01*
X146863285Y-98761357D01*
X146934714Y-98904214D01*
X146934714Y-99261357D01*
X146863285Y-99404214D01*
X146791857Y-99475642D01*
X146649000Y-99547071D01*
X146220428Y-99547071D01*
X146077571Y-99475642D01*
X146006142Y-99404214D01*
X147506142Y-98189928D02*
X147577571Y-98118500D01*
X147720428Y-98047071D01*
X148077571Y-98047071D01*
X148220428Y-98118500D01*
X148291857Y-98189928D01*
X148363285Y-98332785D01*
X148363285Y-98475642D01*
X148291857Y-98689928D01*
X147434714Y-99547071D01*
X148363285Y-99547071D01*
X135363285Y-101962071D02*
X135363285Y-100462071D01*
X135934714Y-100462071D01*
X136077571Y-100533500D01*
X136149000Y-100604928D01*
X136220428Y-100747785D01*
X136220428Y-100962071D01*
X136149000Y-101104928D01*
X136077571Y-101176357D01*
X135934714Y-101247785D01*
X135363285Y-101247785D01*
X136863285Y-101962071D02*
X136863285Y-100962071D01*
X136863285Y-101247785D02*
X136934714Y-101104928D01*
X137006142Y-101033500D01*
X137149000Y-100962071D01*
X137291857Y-100962071D01*
X138006142Y-101962071D02*
X137863285Y-101890642D01*
X137791857Y-101819214D01*
X137720428Y-101676357D01*
X137720428Y-101247785D01*
X137791857Y-101104928D01*
X137863285Y-101033500D01*
X138006142Y-100962071D01*
X138220428Y-100962071D01*
X138363285Y-101033500D01*
X138434714Y-101104928D01*
X138506142Y-101247785D01*
X138506142Y-101676357D01*
X138434714Y-101819214D01*
X138363285Y-101890642D01*
X138220428Y-101962071D01*
X138006142Y-101962071D01*
X139791857Y-100962071D02*
X139791857Y-102176357D01*
X139720428Y-102319214D01*
X139649000Y-102390642D01*
X139506142Y-102462071D01*
X139291857Y-102462071D01*
X139149000Y-102390642D01*
X139791857Y-101890642D02*
X139649000Y-101962071D01*
X139363285Y-101962071D01*
X139220428Y-101890642D01*
X139149000Y-101819214D01*
X139077571Y-101676357D01*
X139077571Y-101247785D01*
X139149000Y-101104928D01*
X139220428Y-101033500D01*
X139363285Y-100962071D01*
X139649000Y-100962071D01*
X139791857Y-101033500D01*
X140506142Y-101962071D02*
X140506142Y-100962071D01*
X140506142Y-101247785D02*
X140577571Y-101104928D01*
X140649000Y-101033500D01*
X140791857Y-100962071D01*
X140934714Y-100962071D01*
X142077571Y-101962071D02*
X142077571Y-101176357D01*
X142006142Y-101033500D01*
X141863285Y-100962071D01*
X141577571Y-100962071D01*
X141434714Y-101033500D01*
X142077571Y-101890642D02*
X141934714Y-101962071D01*
X141577571Y-101962071D01*
X141434714Y-101890642D01*
X141363285Y-101747785D01*
X141363285Y-101604928D01*
X141434714Y-101462071D01*
X141577571Y-101390642D01*
X141934714Y-101390642D01*
X142077571Y-101319214D01*
X142791857Y-101962071D02*
X142791857Y-100962071D01*
X142791857Y-101104928D02*
X142863285Y-101033500D01*
X143006142Y-100962071D01*
X143220428Y-100962071D01*
X143363285Y-101033500D01*
X143434714Y-101176357D01*
X143434714Y-101962071D01*
X143434714Y-101176357D02*
X143506142Y-101033500D01*
X143649000Y-100962071D01*
X143863285Y-100962071D01*
X144006142Y-101033500D01*
X144077571Y-101176357D01*
X144077571Y-101962071D01*
X144791857Y-101962071D02*
X144791857Y-100962071D01*
X144791857Y-101104928D02*
X144863285Y-101033500D01*
X145006142Y-100962071D01*
X145220428Y-100962071D01*
X145363285Y-101033500D01*
X145434714Y-101176357D01*
X145434714Y-101962071D01*
X145434714Y-101176357D02*
X145506142Y-101033500D01*
X145649000Y-100962071D01*
X145863285Y-100962071D01*
X146006142Y-101033500D01*
X146077571Y-101176357D01*
X146077571Y-101962071D01*
X147363285Y-101890642D02*
X147220428Y-101962071D01*
X146934714Y-101962071D01*
X146791857Y-101890642D01*
X146720428Y-101747785D01*
X146720428Y-101176357D01*
X146791857Y-101033500D01*
X146934714Y-100962071D01*
X147220428Y-100962071D01*
X147363285Y-101033500D01*
X147434714Y-101176357D01*
X147434714Y-101319214D01*
X146720428Y-101462071D01*
X148077571Y-101962071D02*
X148077571Y-100962071D01*
X148077571Y-101247785D02*
X148149000Y-101104928D01*
X148220428Y-101033500D01*
X148363285Y-100962071D01*
X148506142Y-100962071D01*
X151316428Y-115582000D02*
X151173571Y-115510571D01*
X150959285Y-115510571D01*
X150745000Y-115582000D01*
X150602142Y-115724857D01*
X150530714Y-115867714D01*
X150459285Y-116153428D01*
X150459285Y-116367714D01*
X150530714Y-116653428D01*
X150602142Y-116796285D01*
X150745000Y-116939142D01*
X150959285Y-117010571D01*
X151102142Y-117010571D01*
X151316428Y-116939142D01*
X151387857Y-116867714D01*
X151387857Y-116367714D01*
X151102142Y-116367714D01*
X152030714Y-117010571D02*
X152030714Y-115510571D01*
X152887857Y-117010571D01*
X152887857Y-115510571D01*
X153602142Y-117010571D02*
X153602142Y-115510571D01*
X153959285Y-115510571D01*
X154173571Y-115582000D01*
X154316428Y-115724857D01*
X154387857Y-115867714D01*
X154459285Y-116153428D01*
X154459285Y-116367714D01*
X154387857Y-116653428D01*
X154316428Y-116796285D01*
X154173571Y-116939142D01*
X153959285Y-117010571D01*
X153602142Y-117010571D01*
X151530714Y-104310571D02*
X151030714Y-103596285D01*
X150673571Y-104310571D02*
X150673571Y-102810571D01*
X151245000Y-102810571D01*
X151387857Y-102882000D01*
X151459285Y-102953428D01*
X151530714Y-103096285D01*
X151530714Y-103310571D01*
X151459285Y-103453428D01*
X151387857Y-103524857D01*
X151245000Y-103596285D01*
X150673571Y-103596285D01*
X152030714Y-102810571D02*
X153030714Y-104310571D01*
X153030714Y-102810571D02*
X152030714Y-104310571D01*
X153602142Y-104310571D02*
X153602142Y-102810571D01*
X153959285Y-102810571D01*
X154173571Y-102882000D01*
X154316428Y-103024857D01*
X154387857Y-103167714D01*
X154459285Y-103453428D01*
X154459285Y-103667714D01*
X154387857Y-103953428D01*
X154316428Y-104096285D01*
X154173571Y-104239142D01*
X153959285Y-104310571D01*
X153602142Y-104310571D01*
X141990000Y-118788571D02*
X141490000Y-118074285D01*
X141132857Y-118788571D02*
X141132857Y-117288571D01*
X141704285Y-117288571D01*
X141847142Y-117360000D01*
X141918571Y-117431428D01*
X141990000Y-117574285D01*
X141990000Y-117788571D01*
X141918571Y-117931428D01*
X141847142Y-118002857D01*
X141704285Y-118074285D01*
X141132857Y-118074285D01*
X142490000Y-117288571D02*
X143490000Y-118788571D01*
X143490000Y-117288571D02*
X142490000Y-118788571D01*
X149816428Y-108604857D02*
X150030714Y-108676285D01*
X150102142Y-108747714D01*
X150173571Y-108890571D01*
X150173571Y-109104857D01*
X150102142Y-109247714D01*
X150030714Y-109319142D01*
X149887857Y-109390571D01*
X149316428Y-109390571D01*
X149316428Y-107890571D01*
X149816428Y-107890571D01*
X149959285Y-107962000D01*
X150030714Y-108033428D01*
X150102142Y-108176285D01*
X150102142Y-108319142D01*
X150030714Y-108462000D01*
X149959285Y-108533428D01*
X149816428Y-108604857D01*
X149316428Y-108604857D01*
X151102142Y-107890571D02*
X151387857Y-107890571D01*
X151530714Y-107962000D01*
X151673571Y-108104857D01*
X151745000Y-108390571D01*
X151745000Y-108890571D01*
X151673571Y-109176285D01*
X151530714Y-109319142D01*
X151387857Y-109390571D01*
X151102142Y-109390571D01*
X150959285Y-109319142D01*
X150816428Y-109176285D01*
X150745000Y-108890571D01*
X150745000Y-108390571D01*
X150816428Y-108104857D01*
X150959285Y-107962000D01*
X151102142Y-107890571D01*
X152673571Y-107890571D02*
X152959285Y-107890571D01*
X153102142Y-107962000D01*
X153245000Y-108104857D01*
X153316428Y-108390571D01*
X153316428Y-108890571D01*
X153245000Y-109176285D01*
X153102142Y-109319142D01*
X152959285Y-109390571D01*
X152673571Y-109390571D01*
X152530714Y-109319142D01*
X152387857Y-109176285D01*
X152316428Y-108890571D01*
X152316428Y-108390571D01*
X152387857Y-108104857D01*
X152530714Y-107962000D01*
X152673571Y-107890571D01*
X153745000Y-107890571D02*
X154602142Y-107890571D01*
X154173571Y-109390571D02*
X154173571Y-107890571D01*
X149102142Y-112970571D02*
X149602142Y-114470571D01*
X150102142Y-112970571D01*
X151102142Y-113684857D02*
X151316428Y-113756285D01*
X151387857Y-113827714D01*
X151459285Y-113970571D01*
X151459285Y-114184857D01*
X151387857Y-114327714D01*
X151316428Y-114399142D01*
X151173571Y-114470571D01*
X150602142Y-114470571D01*
X150602142Y-112970571D01*
X151102142Y-112970571D01*
X151245000Y-113042000D01*
X151316428Y-113113428D01*
X151387857Y-113256285D01*
X151387857Y-113399142D01*
X151316428Y-113542000D01*
X151245000Y-113613428D01*
X151102142Y-113684857D01*
X150602142Y-113684857D01*
X152102142Y-112970571D02*
X152102142Y-114184857D01*
X152173571Y-114327714D01*
X152245000Y-114399142D01*
X152387857Y-114470571D01*
X152673571Y-114470571D01*
X152816428Y-114399142D01*
X152887857Y-114327714D01*
X152959285Y-114184857D01*
X152959285Y-112970571D01*
X153602142Y-114399142D02*
X153816428Y-114470571D01*
X154173571Y-114470571D01*
X154316428Y-114399142D01*
X154387857Y-114327714D01*
X154459285Y-114184857D01*
X154459285Y-114042000D01*
X154387857Y-113899142D01*
X154316428Y-113827714D01*
X154173571Y-113756285D01*
X153887857Y-113684857D01*
X153745000Y-113613428D01*
X153673571Y-113542000D01*
X153602142Y-113399142D01*
X153602142Y-113256285D01*
X153673571Y-113113428D01*
X153745000Y-113042000D01*
X153887857Y-112970571D01*
X154245000Y-112970571D01*
X154459285Y-113042000D01*
X150102142Y-100265571D02*
X151030714Y-100265571D01*
X150530714Y-100837000D01*
X150745000Y-100837000D01*
X150887857Y-100908428D01*
X150959285Y-100979857D01*
X151030714Y-101122714D01*
X151030714Y-101479857D01*
X150959285Y-101622714D01*
X150887857Y-101694142D01*
X150745000Y-101765571D01*
X150316428Y-101765571D01*
X150173571Y-101694142D01*
X150102142Y-101622714D01*
X151673571Y-101622714D02*
X151745000Y-101694142D01*
X151673571Y-101765571D01*
X151602142Y-101694142D01*
X151673571Y-101622714D01*
X151673571Y-101765571D01*
X152245000Y-100265571D02*
X153173571Y-100265571D01*
X152673571Y-100837000D01*
X152887857Y-100837000D01*
X153030714Y-100908428D01*
X153102142Y-100979857D01*
X153173571Y-101122714D01*
X153173571Y-101479857D01*
X153102142Y-101622714D01*
X153030714Y-101694142D01*
X152887857Y-101765571D01*
X152459285Y-101765571D01*
X152316428Y-101694142D01*
X152245000Y-101622714D01*
X153602142Y-100265571D02*
X154102142Y-101765571D01*
X154602142Y-100265571D01*
X127127142Y-117288571D02*
X127984285Y-117288571D01*
X127555714Y-118788571D02*
X127555714Y-117288571D01*
X128341428Y-117288571D02*
X129341428Y-118788571D01*
X129341428Y-117288571D02*
X128341428Y-118788571D01*
D11*
%TO.C,C4*%
X117943333Y-119102142D02*
X117895714Y-119149761D01*
X117752857Y-119197380D01*
X117657619Y-119197380D01*
X117514761Y-119149761D01*
X117419523Y-119054523D01*
X117371904Y-118959285D01*
X117324285Y-118768809D01*
X117324285Y-118625952D01*
X117371904Y-118435476D01*
X117419523Y-118340238D01*
X117514761Y-118245000D01*
X117657619Y-118197380D01*
X117752857Y-118197380D01*
X117895714Y-118245000D01*
X117943333Y-118292619D01*
X118800476Y-118530714D02*
X118800476Y-119197380D01*
X118562380Y-118149761D02*
X118324285Y-118864047D01*
X118943333Y-118864047D01*
%TO.C,Q2*%
X147359619Y-112363238D02*
X147312000Y-112458476D01*
X147216761Y-112553714D01*
X147073904Y-112696571D01*
X147026285Y-112791809D01*
X147026285Y-112887047D01*
X147264380Y-112839428D02*
X147216761Y-112934666D01*
X147121523Y-113029904D01*
X146931047Y-113077523D01*
X146597714Y-113077523D01*
X146407238Y-113029904D01*
X146312000Y-112934666D01*
X146264380Y-112839428D01*
X146264380Y-112648952D01*
X146312000Y-112553714D01*
X146407238Y-112458476D01*
X146597714Y-112410857D01*
X146931047Y-112410857D01*
X147121523Y-112458476D01*
X147216761Y-112553714D01*
X147264380Y-112648952D01*
X147264380Y-112839428D01*
X146359619Y-112029904D02*
X146312000Y-111982285D01*
X146264380Y-111887047D01*
X146264380Y-111648952D01*
X146312000Y-111553714D01*
X146359619Y-111506095D01*
X146454857Y-111458476D01*
X146550095Y-111458476D01*
X146692952Y-111506095D01*
X147264380Y-112077523D01*
X147264380Y-111458476D01*
%TO.C,J2*%
X159178666Y-98269380D02*
X159178666Y-98983666D01*
X159131047Y-99126523D01*
X159035809Y-99221761D01*
X158892952Y-99269380D01*
X158797714Y-99269380D01*
X159607238Y-98364619D02*
X159654857Y-98317000D01*
X159750095Y-98269380D01*
X159988190Y-98269380D01*
X160083428Y-98317000D01*
X160131047Y-98364619D01*
X160178666Y-98459857D01*
X160178666Y-98555095D01*
X160131047Y-98697952D01*
X159559619Y-99269380D01*
X160178666Y-99269380D01*
%TO.C,U1*%
X103537380Y-106171904D02*
X104346904Y-106171904D01*
X104442142Y-106124285D01*
X104489761Y-106076666D01*
X104537380Y-105981428D01*
X104537380Y-105790952D01*
X104489761Y-105695714D01*
X104442142Y-105648095D01*
X104346904Y-105600476D01*
X103537380Y-105600476D01*
X104537380Y-104600476D02*
X104537380Y-105171904D01*
X104537380Y-104886190D02*
X103537380Y-104886190D01*
X103680238Y-104981428D01*
X103775476Y-105076666D01*
X103823095Y-105171904D01*
%TO.C,C5*%
X111593333Y-112752142D02*
X111545714Y-112799761D01*
X111402857Y-112847380D01*
X111307619Y-112847380D01*
X111164761Y-112799761D01*
X111069523Y-112704523D01*
X111021904Y-112609285D01*
X110974285Y-112418809D01*
X110974285Y-112275952D01*
X111021904Y-112085476D01*
X111069523Y-111990238D01*
X111164761Y-111895000D01*
X111307619Y-111847380D01*
X111402857Y-111847380D01*
X111545714Y-111895000D01*
X111593333Y-111942619D01*
X112498095Y-111847380D02*
X112021904Y-111847380D01*
X111974285Y-112323571D01*
X112021904Y-112275952D01*
X112117142Y-112228333D01*
X112355238Y-112228333D01*
X112450476Y-112275952D01*
X112498095Y-112323571D01*
X112545714Y-112418809D01*
X112545714Y-112656904D01*
X112498095Y-112752142D01*
X112450476Y-112799761D01*
X112355238Y-112847380D01*
X112117142Y-112847380D01*
X112021904Y-112799761D01*
X111974285Y-112752142D01*
%TO.C,C3*%
X111593333Y-99417142D02*
X111545714Y-99464761D01*
X111402857Y-99512380D01*
X111307619Y-99512380D01*
X111164761Y-99464761D01*
X111069523Y-99369523D01*
X111021904Y-99274285D01*
X110974285Y-99083809D01*
X110974285Y-98940952D01*
X111021904Y-98750476D01*
X111069523Y-98655238D01*
X111164761Y-98560000D01*
X111307619Y-98512380D01*
X111402857Y-98512380D01*
X111545714Y-98560000D01*
X111593333Y-98607619D01*
X111926666Y-98512380D02*
X112545714Y-98512380D01*
X112212380Y-98893333D01*
X112355238Y-98893333D01*
X112450476Y-98940952D01*
X112498095Y-98988571D01*
X112545714Y-99083809D01*
X112545714Y-99321904D01*
X112498095Y-99417142D01*
X112450476Y-99464761D01*
X112355238Y-99512380D01*
X112069523Y-99512380D01*
X111974285Y-99464761D01*
X111926666Y-99417142D01*
%TO.C,R4*%
X128738333Y-105312380D02*
X128405000Y-104836190D01*
X128166904Y-105312380D02*
X128166904Y-104312380D01*
X128547857Y-104312380D01*
X128643095Y-104360000D01*
X128690714Y-104407619D01*
X128738333Y-104502857D01*
X128738333Y-104645714D01*
X128690714Y-104740952D01*
X128643095Y-104788571D01*
X128547857Y-104836190D01*
X128166904Y-104836190D01*
X129595476Y-104645714D02*
X129595476Y-105312380D01*
X129357380Y-104264761D02*
X129119285Y-104979047D01*
X129738333Y-104979047D01*
%TO.C,C2*%
X115403333Y-103862142D02*
X115355714Y-103909761D01*
X115212857Y-103957380D01*
X115117619Y-103957380D01*
X114974761Y-103909761D01*
X114879523Y-103814523D01*
X114831904Y-103719285D01*
X114784285Y-103528809D01*
X114784285Y-103385952D01*
X114831904Y-103195476D01*
X114879523Y-103100238D01*
X114974761Y-103005000D01*
X115117619Y-102957380D01*
X115212857Y-102957380D01*
X115355714Y-103005000D01*
X115403333Y-103052619D01*
X115784285Y-103052619D02*
X115831904Y-103005000D01*
X115927142Y-102957380D01*
X116165238Y-102957380D01*
X116260476Y-103005000D01*
X116308095Y-103052619D01*
X116355714Y-103147857D01*
X116355714Y-103243095D01*
X116308095Y-103385952D01*
X115736666Y-103957380D01*
X116355714Y-103957380D01*
%TO.C,R5*%
X128738333Y-108487380D02*
X128405000Y-108011190D01*
X128166904Y-108487380D02*
X128166904Y-107487380D01*
X128547857Y-107487380D01*
X128643095Y-107535000D01*
X128690714Y-107582619D01*
X128738333Y-107677857D01*
X128738333Y-107820714D01*
X128690714Y-107915952D01*
X128643095Y-107963571D01*
X128547857Y-108011190D01*
X128166904Y-108011190D01*
X129643095Y-107487380D02*
X129166904Y-107487380D01*
X129119285Y-107963571D01*
X129166904Y-107915952D01*
X129262142Y-107868333D01*
X129500238Y-107868333D01*
X129595476Y-107915952D01*
X129643095Y-107963571D01*
X129690714Y-108058809D01*
X129690714Y-108296904D01*
X129643095Y-108392142D01*
X129595476Y-108439761D01*
X129500238Y-108487380D01*
X129262142Y-108487380D01*
X129166904Y-108439761D01*
X129119285Y-108392142D01*
%TO.C,R8*%
X121118333Y-101417380D02*
X120785000Y-100941190D01*
X120546904Y-101417380D02*
X120546904Y-100417380D01*
X120927857Y-100417380D01*
X121023095Y-100465000D01*
X121070714Y-100512619D01*
X121118333Y-100607857D01*
X121118333Y-100750714D01*
X121070714Y-100845952D01*
X121023095Y-100893571D01*
X120927857Y-100941190D01*
X120546904Y-100941190D01*
X121689761Y-100845952D02*
X121594523Y-100798333D01*
X121546904Y-100750714D01*
X121499285Y-100655476D01*
X121499285Y-100607857D01*
X121546904Y-100512619D01*
X121594523Y-100465000D01*
X121689761Y-100417380D01*
X121880238Y-100417380D01*
X121975476Y-100465000D01*
X122023095Y-100512619D01*
X122070714Y-100607857D01*
X122070714Y-100655476D01*
X122023095Y-100750714D01*
X121975476Y-100798333D01*
X121880238Y-100845952D01*
X121689761Y-100845952D01*
X121594523Y-100893571D01*
X121546904Y-100941190D01*
X121499285Y-101036428D01*
X121499285Y-101226904D01*
X121546904Y-101322142D01*
X121594523Y-101369761D01*
X121689761Y-101417380D01*
X121880238Y-101417380D01*
X121975476Y-101369761D01*
X122023095Y-101322142D01*
X122070714Y-101226904D01*
X122070714Y-101036428D01*
X122023095Y-100941190D01*
X121975476Y-100893571D01*
X121880238Y-100845952D01*
%TO.C,R1*%
X100798333Y-102052380D02*
X100465000Y-101576190D01*
X100226904Y-102052380D02*
X100226904Y-101052380D01*
X100607857Y-101052380D01*
X100703095Y-101100000D01*
X100750714Y-101147619D01*
X100798333Y-101242857D01*
X100798333Y-101385714D01*
X100750714Y-101480952D01*
X100703095Y-101528571D01*
X100607857Y-101576190D01*
X100226904Y-101576190D01*
X101750714Y-102052380D02*
X101179285Y-102052380D01*
X101465000Y-102052380D02*
X101465000Y-101052380D01*
X101369761Y-101195238D01*
X101274523Y-101290476D01*
X101179285Y-101338095D01*
%TO.C,R6*%
X139253333Y-116022380D02*
X138920000Y-115546190D01*
X138681904Y-116022380D02*
X138681904Y-115022380D01*
X139062857Y-115022380D01*
X139158095Y-115070000D01*
X139205714Y-115117619D01*
X139253333Y-115212857D01*
X139253333Y-115355714D01*
X139205714Y-115450952D01*
X139158095Y-115498571D01*
X139062857Y-115546190D01*
X138681904Y-115546190D01*
X140110476Y-115022380D02*
X139920000Y-115022380D01*
X139824761Y-115070000D01*
X139777142Y-115117619D01*
X139681904Y-115260476D01*
X139634285Y-115450952D01*
X139634285Y-115831904D01*
X139681904Y-115927142D01*
X139729523Y-115974761D01*
X139824761Y-116022380D01*
X140015238Y-116022380D01*
X140110476Y-115974761D01*
X140158095Y-115927142D01*
X140205714Y-115831904D01*
X140205714Y-115593809D01*
X140158095Y-115498571D01*
X140110476Y-115450952D01*
X140015238Y-115403333D01*
X139824761Y-115403333D01*
X139729523Y-115450952D01*
X139681904Y-115498571D01*
X139634285Y-115593809D01*
%TO.C,Q1*%
X142192619Y-105505238D02*
X142145000Y-105600476D01*
X142049761Y-105695714D01*
X141906904Y-105838571D01*
X141859285Y-105933809D01*
X141859285Y-106029047D01*
X142097380Y-105981428D02*
X142049761Y-106076666D01*
X141954523Y-106171904D01*
X141764047Y-106219523D01*
X141430714Y-106219523D01*
X141240238Y-106171904D01*
X141145000Y-106076666D01*
X141097380Y-105981428D01*
X141097380Y-105790952D01*
X141145000Y-105695714D01*
X141240238Y-105600476D01*
X141430714Y-105552857D01*
X141764047Y-105552857D01*
X141954523Y-105600476D01*
X142049761Y-105695714D01*
X142097380Y-105790952D01*
X142097380Y-105981428D01*
X142097380Y-104600476D02*
X142097380Y-105171904D01*
X142097380Y-104886190D02*
X141097380Y-104886190D01*
X141240238Y-104981428D01*
X141335476Y-105076666D01*
X141383095Y-105171904D01*
%TO.C,R7*%
X133538333Y-115937380D02*
X133205000Y-115461190D01*
X132966904Y-115937380D02*
X132966904Y-114937380D01*
X133347857Y-114937380D01*
X133443095Y-114985000D01*
X133490714Y-115032619D01*
X133538333Y-115127857D01*
X133538333Y-115270714D01*
X133490714Y-115365952D01*
X133443095Y-115413571D01*
X133347857Y-115461190D01*
X132966904Y-115461190D01*
X133871666Y-114937380D02*
X134538333Y-114937380D01*
X134109761Y-115937380D01*
%TO.C,R3*%
X100798333Y-116022380D02*
X100465000Y-115546190D01*
X100226904Y-116022380D02*
X100226904Y-115022380D01*
X100607857Y-115022380D01*
X100703095Y-115070000D01*
X100750714Y-115117619D01*
X100798333Y-115212857D01*
X100798333Y-115355714D01*
X100750714Y-115450952D01*
X100703095Y-115498571D01*
X100607857Y-115546190D01*
X100226904Y-115546190D01*
X101131666Y-115022380D02*
X101750714Y-115022380D01*
X101417380Y-115403333D01*
X101560238Y-115403333D01*
X101655476Y-115450952D01*
X101703095Y-115498571D01*
X101750714Y-115593809D01*
X101750714Y-115831904D01*
X101703095Y-115927142D01*
X101655476Y-115974761D01*
X101560238Y-116022380D01*
X101274523Y-116022380D01*
X101179285Y-115974761D01*
X101131666Y-115927142D01*
%TO.C,J1*%
X99077380Y-108918333D02*
X99791666Y-108918333D01*
X99934523Y-108965952D01*
X100029761Y-109061190D01*
X100077380Y-109204047D01*
X100077380Y-109299285D01*
X100077380Y-107918333D02*
X100077380Y-108489761D01*
X100077380Y-108204047D02*
X99077380Y-108204047D01*
X99220238Y-108299285D01*
X99315476Y-108394523D01*
X99363095Y-108489761D01*
%TO.C,D1*%
X135811904Y-116657380D02*
X135811904Y-115657380D01*
X136050000Y-115657380D01*
X136192857Y-115705000D01*
X136288095Y-115800238D01*
X136335714Y-115895476D01*
X136383333Y-116085952D01*
X136383333Y-116228809D01*
X136335714Y-116419285D01*
X136288095Y-116514523D01*
X136192857Y-116609761D01*
X136050000Y-116657380D01*
X135811904Y-116657380D01*
X137335714Y-116657380D02*
X136764285Y-116657380D01*
X137050000Y-116657380D02*
X137050000Y-115657380D01*
X136954761Y-115800238D01*
X136859523Y-115895476D01*
X136764285Y-115943095D01*
%TO.C,R2*%
X100798333Y-118562380D02*
X100465000Y-118086190D01*
X100226904Y-118562380D02*
X100226904Y-117562380D01*
X100607857Y-117562380D01*
X100703095Y-117610000D01*
X100750714Y-117657619D01*
X100798333Y-117752857D01*
X100798333Y-117895714D01*
X100750714Y-117990952D01*
X100703095Y-118038571D01*
X100607857Y-118086190D01*
X100226904Y-118086190D01*
X101179285Y-117657619D02*
X101226904Y-117610000D01*
X101322142Y-117562380D01*
X101560238Y-117562380D01*
X101655476Y-117610000D01*
X101703095Y-117657619D01*
X101750714Y-117752857D01*
X101750714Y-117848095D01*
X101703095Y-117990952D01*
X101131666Y-118562380D01*
X101750714Y-118562380D01*
%TO.C,C1*%
X100798333Y-99417142D02*
X100750714Y-99464761D01*
X100607857Y-99512380D01*
X100512619Y-99512380D01*
X100369761Y-99464761D01*
X100274523Y-99369523D01*
X100226904Y-99274285D01*
X100179285Y-99083809D01*
X100179285Y-98940952D01*
X100226904Y-98750476D01*
X100274523Y-98655238D01*
X100369761Y-98560000D01*
X100512619Y-98512380D01*
X100607857Y-98512380D01*
X100750714Y-98560000D01*
X100798333Y-98607619D01*
X101750714Y-99512380D02*
X101179285Y-99512380D01*
X101465000Y-99512380D02*
X101465000Y-98512380D01*
X101369761Y-98655238D01*
X101274523Y-98750476D01*
X101179285Y-98798095D01*
%TO.C,R9*%
X147264380Y-105322666D02*
X146788190Y-105656000D01*
X147264380Y-105894095D02*
X146264380Y-105894095D01*
X146264380Y-105513142D01*
X146312000Y-105417904D01*
X146359619Y-105370285D01*
X146454857Y-105322666D01*
X146597714Y-105322666D01*
X146692952Y-105370285D01*
X146740571Y-105417904D01*
X146788190Y-105513142D01*
X146788190Y-105894095D01*
X147264380Y-104846476D02*
X147264380Y-104656000D01*
X147216761Y-104560761D01*
X147169142Y-104513142D01*
X147026285Y-104417904D01*
X146835809Y-104370285D01*
X146454857Y-104370285D01*
X146359619Y-104417904D01*
X146312000Y-104465523D01*
X146264380Y-104560761D01*
X146264380Y-104751238D01*
X146312000Y-104846476D01*
X146359619Y-104894095D01*
X146454857Y-104941714D01*
X146692952Y-104941714D01*
X146788190Y-104894095D01*
X146835809Y-104846476D01*
X146883428Y-104751238D01*
X146883428Y-104560761D01*
X146835809Y-104465523D01*
X146788190Y-104417904D01*
X146692952Y-104370285D01*
%TO.C,C6*%
X126242142Y-114466666D02*
X126289761Y-114514285D01*
X126337380Y-114657142D01*
X126337380Y-114752380D01*
X126289761Y-114895238D01*
X126194523Y-114990476D01*
X126099285Y-115038095D01*
X125908809Y-115085714D01*
X125765952Y-115085714D01*
X125575476Y-115038095D01*
X125480238Y-114990476D01*
X125385000Y-114895238D01*
X125337380Y-114752380D01*
X125337380Y-114657142D01*
X125385000Y-114514285D01*
X125432619Y-114466666D01*
X125337380Y-113609523D02*
X125337380Y-113800000D01*
X125385000Y-113895238D01*
X125432619Y-113942857D01*
X125575476Y-114038095D01*
X125765952Y-114085714D01*
X126146904Y-114085714D01*
X126242142Y-114038095D01*
X126289761Y-113990476D01*
X126337380Y-113895238D01*
X126337380Y-113704761D01*
X126289761Y-113609523D01*
X126242142Y-113561904D01*
X126146904Y-113514285D01*
X125908809Y-113514285D01*
X125813571Y-113561904D01*
X125765952Y-113609523D01*
X125718333Y-113704761D01*
X125718333Y-113895238D01*
X125765952Y-113990476D01*
X125813571Y-114038095D01*
X125908809Y-114085714D01*
%TO.C,D2*%
X130426904Y-116742380D02*
X130426904Y-115742380D01*
X130665000Y-115742380D01*
X130807857Y-115790000D01*
X130903095Y-115885238D01*
X130950714Y-115980476D01*
X130998333Y-116170952D01*
X130998333Y-116313809D01*
X130950714Y-116504285D01*
X130903095Y-116599523D01*
X130807857Y-116694761D01*
X130665000Y-116742380D01*
X130426904Y-116742380D01*
X131379285Y-115837619D02*
X131426904Y-115790000D01*
X131522142Y-115742380D01*
X131760238Y-115742380D01*
X131855476Y-115790000D01*
X131903095Y-115837619D01*
X131950714Y-115932857D01*
X131950714Y-116028095D01*
X131903095Y-116170952D01*
X131331666Y-116742380D01*
X131950714Y-116742380D01*
%TO.C,U2*%
X118618095Y-103057380D02*
X118618095Y-103866904D01*
X118665714Y-103962142D01*
X118713333Y-104009761D01*
X118808571Y-104057380D01*
X118999047Y-104057380D01*
X119094285Y-104009761D01*
X119141904Y-103962142D01*
X119189523Y-103866904D01*
X119189523Y-103057380D01*
X119618095Y-103152619D02*
X119665714Y-103105000D01*
X119760952Y-103057380D01*
X119999047Y-103057380D01*
X120094285Y-103105000D01*
X120141904Y-103152619D01*
X120189523Y-103247857D01*
X120189523Y-103343095D01*
X120141904Y-103485952D01*
X119570476Y-104057380D01*
X120189523Y-104057380D01*
%TO.C,D3*%
X126261904Y-101417380D02*
X126261904Y-100417380D01*
X126500000Y-100417380D01*
X126642857Y-100465000D01*
X126738095Y-100560238D01*
X126785714Y-100655476D01*
X126833333Y-100845952D01*
X126833333Y-100988809D01*
X126785714Y-101179285D01*
X126738095Y-101274523D01*
X126642857Y-101369761D01*
X126500000Y-101417380D01*
X126261904Y-101417380D01*
X127166666Y-100417380D02*
X127785714Y-100417380D01*
X127452380Y-100798333D01*
X127595238Y-100798333D01*
X127690476Y-100845952D01*
X127738095Y-100893571D01*
X127785714Y-100988809D01*
X127785714Y-101226904D01*
X127738095Y-101322142D01*
X127690476Y-101369761D01*
X127595238Y-101417380D01*
X127309523Y-101417380D01*
X127214285Y-101369761D01*
X127166666Y-101322142D01*
%TO.C,R10*%
X138247380Y-108684921D02*
X137771190Y-109018254D01*
X138247380Y-109256349D02*
X137247380Y-109256349D01*
X137247380Y-108875397D01*
X137295000Y-108780159D01*
X137342619Y-108732540D01*
X137437857Y-108684921D01*
X137580714Y-108684921D01*
X137675952Y-108732540D01*
X137723571Y-108780159D01*
X137771190Y-108875397D01*
X137771190Y-109256349D01*
X138247380Y-107732540D02*
X138247380Y-108303968D01*
X138247380Y-108018254D02*
X137247380Y-108018254D01*
X137390238Y-108113492D01*
X137485476Y-108208730D01*
X137533095Y-108303968D01*
X137247380Y-107113492D02*
X137247380Y-107018254D01*
X137295000Y-106923016D01*
X137342619Y-106875397D01*
X137437857Y-106827778D01*
X137628333Y-106780159D01*
X137866428Y-106780159D01*
X138056904Y-106827778D01*
X138152142Y-106875397D01*
X138199761Y-106923016D01*
X138247380Y-107018254D01*
X138247380Y-107113492D01*
X138199761Y-107208730D01*
X138152142Y-107256349D01*
X138056904Y-107303968D01*
X137866428Y-107351587D01*
X137628333Y-107351587D01*
X137437857Y-107303968D01*
X137342619Y-107256349D01*
X137295000Y-107208730D01*
X137247380Y-107113492D01*
D12*
%TO.C,C4*%
X115011252Y-119020000D02*
X113588748Y-119020000D01*
X115011252Y-117200000D02*
X113588748Y-117200000D01*
%TO.C,Q2*%
X145725000Y-112520000D02*
X144795000Y-112520000D01*
X145725000Y-112520000D02*
X145725000Y-109360000D01*
X142565000Y-112520000D02*
X143495000Y-112520000D01*
X142565000Y-112520000D02*
X142565000Y-111060000D01*
%TO.C,J2*%
X158101000Y-102357000D02*
X160761000Y-102357000D01*
X157703929Y-110867000D02*
X158101000Y-110867000D01*
X166761000Y-104007000D02*
X160761000Y-104007000D01*
X166761000Y-103247000D02*
X166761000Y-104007000D01*
X166761000Y-116707000D02*
X160761000Y-116707000D01*
X160761000Y-103247000D02*
X166761000Y-103247000D01*
X160761000Y-101127000D02*
X166761000Y-101127000D01*
X160761000Y-101007000D02*
X166761000Y-101007000D01*
X157703929Y-108327000D02*
X158101000Y-108327000D01*
X166761000Y-106547000D02*
X160761000Y-106547000D01*
X160761000Y-105787000D02*
X166761000Y-105787000D01*
X160761000Y-113407000D02*
X166761000Y-113407000D01*
X158101000Y-112517000D02*
X160761000Y-112517000D01*
X157703929Y-115947000D02*
X158101000Y-115947000D01*
X160761000Y-101367000D02*
X166761000Y-101367000D01*
X158101000Y-115057000D02*
X160761000Y-115057000D01*
X166761000Y-110867000D02*
X166761000Y-111627000D01*
X160761000Y-100887000D02*
X166761000Y-100887000D01*
X160761000Y-108327000D02*
X166761000Y-108327000D01*
X166761000Y-108327000D02*
X166761000Y-109087000D01*
X157771000Y-100707000D02*
X158101000Y-100707000D01*
X166761000Y-114167000D02*
X160761000Y-114167000D01*
X160761000Y-110867000D02*
X166761000Y-110867000D01*
X158101000Y-99757000D02*
X158101000Y-117657000D01*
X160761000Y-117657000D02*
X160761000Y-99757000D01*
X160761000Y-101247000D02*
X166761000Y-101247000D01*
X166761000Y-115947000D02*
X166761000Y-116707000D01*
X158101000Y-104897000D02*
X160761000Y-104897000D01*
X157703929Y-105787000D02*
X158101000Y-105787000D01*
X155391000Y-101087000D02*
X155391000Y-99817000D01*
X157703929Y-114167000D02*
X158101000Y-114167000D01*
X158101000Y-109977000D02*
X160761000Y-109977000D01*
X155391000Y-99817000D02*
X156661000Y-99817000D01*
X158101000Y-117657000D02*
X160761000Y-117657000D01*
X166761000Y-100707000D02*
X166761000Y-101467000D01*
X166761000Y-111627000D02*
X160761000Y-111627000D01*
X166761000Y-105787000D02*
X166761000Y-106547000D01*
X157703929Y-106547000D02*
X158101000Y-106547000D01*
X157771000Y-101467000D02*
X158101000Y-101467000D01*
X160761000Y-115947000D02*
X166761000Y-115947000D01*
X157703929Y-116707000D02*
X158101000Y-116707000D01*
X158101000Y-107437000D02*
X160761000Y-107437000D01*
X160761000Y-100767000D02*
X166761000Y-100767000D01*
X157703929Y-103247000D02*
X158101000Y-103247000D01*
X157703929Y-113407000D02*
X158101000Y-113407000D01*
X157703929Y-111627000D02*
X158101000Y-111627000D01*
X166761000Y-101467000D02*
X160761000Y-101467000D01*
X157703929Y-104007000D02*
X158101000Y-104007000D01*
X166761000Y-113407000D02*
X166761000Y-114167000D01*
X160761000Y-100707000D02*
X166761000Y-100707000D01*
X157703929Y-109087000D02*
X158101000Y-109087000D01*
X166761000Y-109087000D02*
X160761000Y-109087000D01*
X160761000Y-99757000D02*
X158101000Y-99757000D01*
%TO.C,U1*%
X105405000Y-107880000D02*
X105405000Y-110710000D01*
X105135000Y-106380000D02*
X105135000Y-107880000D01*
X111765000Y-107880000D02*
X111765000Y-108980000D01*
X112035000Y-106380000D02*
X112035000Y-107880000D01*
X105135000Y-107880000D02*
X105405000Y-107880000D01*
X112035000Y-107880000D02*
X111765000Y-107880000D01*
%TO.C,C5*%
X103905000Y-112160000D02*
X103905000Y-114510000D01*
X110725000Y-117915563D02*
X110725000Y-116630000D01*
X109660563Y-112160000D02*
X103905000Y-112160000D01*
X110725000Y-113224437D02*
X109660563Y-112160000D01*
X109660563Y-118980000D02*
X103905000Y-118980000D01*
X103905000Y-118980000D02*
X103905000Y-116630000D01*
X110725000Y-113224437D02*
X110725000Y-114510000D01*
X110725000Y-117915563D02*
X109660563Y-118980000D01*
%TO.C,C3*%
X117170000Y-98125000D02*
X113085000Y-98125000D01*
X113085000Y-98125000D02*
X113085000Y-99995000D01*
X113085000Y-99995000D02*
X117170000Y-99995000D01*
%TO.C,R4*%
X128177936Y-107590000D02*
X129632064Y-107590000D01*
X128177936Y-105770000D02*
X129632064Y-105770000D01*
%TO.C,C2*%
X114858748Y-100690000D02*
X116281252Y-100690000D01*
X114858748Y-102510000D02*
X116281252Y-102510000D01*
%TO.C,R5*%
X128177936Y-110765000D02*
X129632064Y-110765000D01*
X128177936Y-108945000D02*
X129632064Y-108945000D01*
%TO.C,R8*%
X122012064Y-99970000D02*
X120557936Y-99970000D01*
X122012064Y-98150000D02*
X120557936Y-98150000D01*
%TO.C,R1*%
X96427936Y-102510000D02*
X97882064Y-102510000D01*
X96427936Y-100690000D02*
X97882064Y-100690000D01*
%TO.C,R6*%
X137422936Y-112755000D02*
X138877064Y-112755000D01*
X137422936Y-114575000D02*
X138877064Y-114575000D01*
%TO.C,Q1*%
X142565000Y-104650000D02*
X143495000Y-104650000D01*
X145725000Y-104650000D02*
X144795000Y-104650000D01*
X145725000Y-104650000D02*
X145725000Y-106110000D01*
X142565000Y-104650000D02*
X142565000Y-107810000D01*
%TO.C,R7*%
X133162064Y-112755000D02*
X131707936Y-112755000D01*
X133162064Y-114575000D02*
X131707936Y-114575000D01*
%TO.C,R3*%
X96427936Y-114660000D02*
X97882064Y-114660000D01*
X96427936Y-116480000D02*
X97882064Y-116480000D01*
%TO.C,J1*%
X91980000Y-103885000D02*
X90080000Y-103885000D01*
X95880000Y-113285000D02*
X93880000Y-113285000D01*
X91980000Y-113285000D02*
X90080000Y-113285000D01*
X95880000Y-103885000D02*
X93880000Y-103885000D01*
X90080000Y-103885000D02*
X90080000Y-113285000D01*
%TO.C,D1*%
X136550000Y-119245000D02*
X140610000Y-119245000D01*
X140610000Y-116975000D02*
X136550000Y-116975000D01*
X140610000Y-119245000D02*
X140610000Y-116975000D01*
%TO.C,R2*%
X96427936Y-119020000D02*
X97882064Y-119020000D01*
X96427936Y-117200000D02*
X97882064Y-117200000D01*
%TO.C,C1*%
X96443748Y-98150000D02*
X97866252Y-98150000D01*
X96443748Y-99970000D02*
X97866252Y-99970000D01*
%TO.C,R9*%
X148230000Y-109312064D02*
X148230000Y-107857936D01*
X146410000Y-109312064D02*
X146410000Y-107857936D01*
%TO.C,C6*%
X126700000Y-112700000D02*
X126700000Y-116785000D01*
X128570000Y-116785000D02*
X128570000Y-112700000D01*
X126700000Y-116785000D02*
X128570000Y-116785000D01*
%TO.C,D2*%
X129975000Y-119245000D02*
X134035000Y-119245000D01*
X129975000Y-116975000D02*
X129975000Y-119245000D01*
X134035000Y-116975000D02*
X129975000Y-116975000D01*
D11*
%TO.C,U2*%
X116505000Y-104530000D02*
X116505000Y-105105000D01*
X116505000Y-115180000D02*
X116505000Y-114530000D01*
X116505000Y-115180000D02*
X122255000Y-115180000D01*
X122255000Y-115180000D02*
X122255000Y-114530000D01*
X116505000Y-104530000D02*
X122255000Y-104530000D01*
X116505000Y-105105000D02*
X114905000Y-105105000D01*
X122255000Y-104530000D02*
X122255000Y-105180000D01*
D12*
%TO.C,D3*%
X124540000Y-100195000D02*
X128600000Y-100195000D01*
X124540000Y-97925000D02*
X124540000Y-100195000D01*
X128600000Y-97925000D02*
X124540000Y-97925000D01*
%TO.C,R10*%
X138790000Y-106587936D02*
X138790000Y-108042064D01*
X140610000Y-106587936D02*
X140610000Y-108042064D01*
%TD*%
M02*
