%TF.GenerationSoftware,KiCad,Pcbnew,(6.0.10-dirty)*%
%TF.CreationDate,2022-12-24T01:30:52+01:00*%
%TF.ProjectId,esp32-cy7c65213-programmer,65737033-322d-4637-9937-633635323133,rev?*%
%TF.SameCoordinates,Original*%
%TF.FileFunction,Copper,L2,Bot*%
%TF.FilePolarity,Positive*%
%FSLAX46Y46*%
G04 Gerber Fmt 4.6, Leading zero omitted, Abs format (unit mm)*
G04 Created by KiCad (PCBNEW (6.0.10-dirty)) date 2022-12-24 01:30:52*
%MOMM*%
%LPD*%
G01*
G04 APERTURE LIST*
%TA.AperFunction,ComponentPad*%
%ADD10R,1.700000X1.700000*%
%TD*%
%TA.AperFunction,ComponentPad*%
%ADD11O,1.700000X1.700000*%
%TD*%
%TA.AperFunction,ComponentPad*%
%ADD12O,2.100000X1.000000*%
%TD*%
%TA.AperFunction,ComponentPad*%
%ADD13O,1.600000X1.000000*%
%TD*%
%TA.AperFunction,ViaPad*%
%ADD14C,0.800000*%
%TD*%
%TA.AperFunction,Conductor*%
%ADD15C,0.250000*%
%TD*%
%TA.AperFunction,Conductor*%
%ADD16C,0.500000*%
%TD*%
%TA.AperFunction,Conductor*%
%ADD17C,0.200000*%
%TD*%
G04 APERTURE END LIST*
D10*
%TO.P,J2,1,Pin_1*%
%TO.N,+3.3V*%
X156661000Y-101087000D03*
D11*
%TO.P,J2,2,Pin_2*%
%TO.N,RXD*%
X156661000Y-103627000D03*
%TO.P,J2,3,Pin_3*%
%TO.N,TXD*%
X156661000Y-106167000D03*
%TO.P,J2,4,Pin_4*%
%TO.N,BOOT*%
X156661000Y-108707000D03*
%TO.P,J2,5,Pin_5*%
%TO.N,EN*%
X156661000Y-111247000D03*
%TO.P,J2,6,Pin_6*%
%TO.N,VBUS*%
X156661000Y-113787000D03*
%TO.P,J2,7,Pin_7*%
%TO.N,GND*%
X156661000Y-116327000D03*
%TD*%
D12*
%TO.P,J1,S1,SHIELD*%
%TO.N,Net-(C1-Pad1)*%
X97110000Y-112905000D03*
D13*
X92930000Y-112905000D03*
X92930000Y-104265000D03*
D12*
X97110000Y-104265000D03*
%TD*%
D14*
%TO.N,GND*%
X100330000Y-112395000D03*
X118745000Y-102235000D03*
X114300000Y-118110000D03*
X100330000Y-104140000D03*
X117475000Y-116840000D03*
X117785000Y-109530000D03*
%TO.N,VBUS*%
X112395000Y-105410000D03*
X113665000Y-103505000D03*
%TO.N,+3.3V*%
X108585000Y-99060000D03*
X127000000Y-99060000D03*
%TO.N,D+*%
X100330000Y-109855000D03*
X118745000Y-114300000D03*
X101600000Y-107950000D03*
%TO.N,D-*%
X118745000Y-113030000D03*
X102870000Y-106680000D03*
%TO.N,RXD*%
X150495000Y-107325000D03*
X121285000Y-107315000D03*
%TO.N,EN*%
X147828000Y-104140000D03*
%TO.N,TXD*%
X121285000Y-106045000D03*
%TO.N,RTS*%
X118110000Y-107315000D03*
X135255000Y-104775000D03*
%TO.N,DTR*%
X118110000Y-106045000D03*
X136525000Y-104775000D03*
%TO.N,Net-(R6-Pad1)*%
X120650000Y-109855000D03*
X136525000Y-115570000D03*
%TO.N,Net-(R7-Pad1)*%
X120015000Y-108585000D03*
X133985000Y-115570000D03*
%TD*%
D15*
%TO.N,Net-(C1-Pad1)*%
X97110000Y-112905000D02*
X92930000Y-112905000D01*
D16*
%TO.N,GND*%
X155956000Y-117348000D02*
X117983000Y-117348000D01*
X114300000Y-117475000D02*
X114935000Y-116840000D01*
X114935000Y-116840000D02*
X117475000Y-116840000D01*
X117983000Y-117348000D02*
X117475000Y-116840000D01*
X114300000Y-118110000D02*
X114300000Y-117475000D01*
X156661000Y-116643000D02*
X155956000Y-117348000D01*
D15*
X100330000Y-112395000D02*
X99060000Y-112395000D01*
X98425000Y-111760000D02*
X98425000Y-105410000D01*
X116840000Y-108585000D02*
X116840000Y-104140000D01*
X117785000Y-109530000D02*
X116840000Y-108585000D01*
D16*
X156661000Y-116327000D02*
X156661000Y-116643000D01*
D15*
X99695000Y-104140000D02*
X100330000Y-104140000D01*
X99060000Y-112395000D02*
X98425000Y-111760000D01*
X116840000Y-104140000D02*
X118745000Y-102235000D01*
X98425000Y-105410000D02*
X99695000Y-104140000D01*
D16*
%TO.N,VBUS*%
X158496000Y-98552000D02*
X131572000Y-98552000D01*
X131572000Y-98552000D02*
X129032000Y-101092000D01*
X113665000Y-102235000D02*
X113665000Y-103505000D01*
X112395000Y-104140000D02*
X113030000Y-103505000D01*
X114808000Y-101092000D02*
X113665000Y-102235000D01*
X129032000Y-101092000D02*
X114808000Y-101092000D01*
X157983000Y-113787000D02*
X157988000Y-113792000D01*
X157988000Y-113792000D02*
X159512000Y-112268000D01*
X159512000Y-99568000D02*
X158496000Y-98552000D01*
X113030000Y-103505000D02*
X113665000Y-103505000D01*
X156661000Y-113787000D02*
X157983000Y-113787000D01*
X112395000Y-105410000D02*
X112395000Y-104140000D01*
X159512000Y-112268000D02*
X159512000Y-99568000D01*
%TO.N,+3.3V*%
X108585000Y-99060000D02*
X127000000Y-99060000D01*
D17*
%TO.N,D+*%
X101600000Y-108585000D02*
X100330000Y-109855000D01*
X101600000Y-107950000D02*
X101600000Y-108585000D01*
X114935000Y-114300000D02*
X113665000Y-113030000D01*
X118745000Y-114300000D02*
X114935000Y-114300000D01*
X113665000Y-109220000D02*
X112395000Y-107950000D01*
X112395000Y-107950000D02*
X101600000Y-107950000D01*
X113665000Y-113030000D02*
X113665000Y-109220000D01*
%TO.N,D-*%
X114300000Y-112395000D02*
X114300000Y-108585000D01*
X114935000Y-113030000D02*
X114300000Y-112395000D01*
X103505000Y-107315000D02*
X102870000Y-106680000D01*
X114300000Y-108585000D02*
X113030000Y-107315000D01*
X118745000Y-113030000D02*
X114935000Y-113030000D01*
X113030000Y-107315000D02*
X103505000Y-107315000D01*
D15*
%TO.N,RXD*%
X121285000Y-107315000D02*
X150495000Y-107325000D01*
%TO.N,EN*%
X153924000Y-104140000D02*
X147828000Y-104140000D01*
X158496000Y-109412000D02*
X158496000Y-103632000D01*
X156661000Y-111247000D02*
X158496000Y-109412000D01*
X155612000Y-102452000D02*
X153924000Y-104140000D01*
X158496000Y-103632000D02*
X157316000Y-102452000D01*
X157316000Y-102452000D02*
X155612000Y-102452000D01*
%TO.N,TXD*%
X155448000Y-105664000D02*
X121666000Y-105664000D01*
X156661000Y-106167000D02*
X155951000Y-106167000D01*
X155951000Y-106167000D02*
X155448000Y-105664000D01*
X121666000Y-105664000D02*
X121285000Y-106045000D01*
%TO.N,RTS*%
X119380000Y-107315000D02*
X120015000Y-106680000D01*
X120015000Y-105410000D02*
X120650000Y-104775000D01*
X120015000Y-106680000D02*
X120015000Y-105410000D01*
X120650000Y-104775000D02*
X135255000Y-104775000D01*
X118110000Y-107315000D02*
X119380000Y-107315000D01*
%TO.N,DTR*%
X136525000Y-104140000D02*
X136525000Y-104775000D01*
X118110000Y-106045000D02*
X118745000Y-106045000D01*
X120650000Y-103505000D02*
X135890000Y-103505000D01*
X119380000Y-104775000D02*
X120650000Y-103505000D01*
X119380000Y-105410000D02*
X119380000Y-104775000D01*
X135890000Y-103505000D02*
X136525000Y-104140000D01*
X118745000Y-106045000D02*
X119380000Y-105410000D01*
%TO.N,Net-(R6-Pad1)*%
X135890000Y-114300000D02*
X125730000Y-114300000D01*
X125730000Y-114300000D02*
X124460000Y-115570000D01*
X124460000Y-115570000D02*
X121285000Y-115570000D01*
X136525000Y-114935000D02*
X135890000Y-114300000D01*
X120650000Y-114935000D02*
X120650000Y-109855000D01*
X136525000Y-115570000D02*
X136525000Y-114935000D01*
X121285000Y-115570000D02*
X120650000Y-114935000D01*
%TO.N,Net-(R7-Pad1)*%
X125730000Y-115570000D02*
X125095000Y-116205000D01*
X133985000Y-115570000D02*
X125730000Y-115570000D01*
X125095000Y-116205000D02*
X120015000Y-116205000D01*
X120015000Y-116205000D02*
X120015000Y-108585000D01*
%TD*%
M02*
